<?xml version="1.0" standalone="no"?>
<!DOCTYPE svg PUBLIC "-//W3C//DTD SVG 1.1//EN" "http://www.w3.org/Graphics/SVG/1.1/DTD/svg11.dtd" >
<svg xmlns="http://www.w3.org/2000/svg">
<metadata>Generated by IcoMoon</metadata>
<defs>
<font id="icomoon" horiz-adv-x="1024">
<font-face units-per-em="1024" ascent="972.8" descent="-51.2" />
<missing-glyph horiz-adv-x="1024" />
<glyph unicode="&#x20;" horiz-adv-x="512" d="" />
<glyph unicode="&#xe900;" glyph-name="arrow" d="M542.165 200.832l-225.835 225.835h494.336c23.552 0 42.667 19.115 42.667 42.667s-19.115 42.667-42.667 42.667h-494.336l225.835 225.835c16.683 16.683 16.683 43.691 0 60.331s-43.691 16.683-60.331 0l-298.667-298.667c-4.096-4.096-7.168-8.789-9.259-13.824-2.176-5.205-3.243-10.795-3.243-16.341 0-10.923 4.181-21.845 12.501-30.165l298.667-298.667c16.683-16.683 43.691-16.683 60.331 0s16.683 43.691 0 60.331z" />
<glyph unicode="&#xe901;" glyph-name="camera" d="M1024 170.666v469.333c0 35.328-14.379 67.413-37.504 90.496s-55.168 37.504-90.496 37.504h-147.84l-72.661 109.013c-7.765 11.52-20.736 18.987-35.499 18.987h-256c-13.909-0.085-27.307-6.741-35.499-18.987l-72.661-109.013h-147.84c-35.328 0-67.413-14.379-90.496-37.504s-37.504-55.168-37.504-90.496v-469.333c0-35.328 14.379-67.413 37.504-90.496s55.168-37.504 90.496-37.504h768c35.328 0 67.413 14.379 90.496 37.504s37.504 55.168 37.504 90.496zM938.667 170.666c0-11.776-4.736-22.4-12.501-30.165s-18.389-12.501-30.165-12.501h-768c-11.776 0-22.4 4.736-30.165 12.501s-12.501 18.389-12.501 30.165v469.333c0 11.776 4.736 22.4 12.501 30.165s18.389 12.501 30.165 12.501h170.667c14.763 0 27.733 7.467 35.499 18.987l72.661 109.013h210.347l72.661-109.013c8.192-12.245 21.589-18.901 35.499-18.987h170.667c11.776 0 22.4-4.736 30.165-12.501s12.501-18.389 12.501-30.165zM725.333 426.666c0 58.88-23.936 112.299-62.464 150.869s-91.989 62.464-150.869 62.464-112.299-23.936-150.869-62.464-62.464-91.989-62.464-150.869 23.936-112.299 62.464-150.869 91.989-62.464 150.869-62.464 112.299 23.936 150.869 62.464 62.464 91.989 62.464 150.869zM640 426.666c0-35.371-14.293-67.285-37.504-90.496s-55.125-37.504-90.496-37.504-67.285 14.293-90.496 37.504-37.504 55.125-37.504 90.496 14.293 67.285 37.504 90.496 55.125 37.504 90.496 37.504 67.285-14.293 90.496-37.504 37.504-55.125 37.504-90.496z" />
<glyph unicode="&#xe902;" glyph-name="chevron" d="M670.165 243.498l-225.835 225.835 225.835 225.835c16.683 16.683 16.683 43.691 0 60.331s-43.691 16.683-60.331 0l-256-256c-16.683-16.683-16.683-43.691 0-60.331l256-256c16.683-16.683 43.691-16.683 60.331 0s16.683 43.691 0 60.331z" />
<glyph unicode="&#xe903;" glyph-name="corner" d="M810.667 810.666v-298.667c0-35.371-14.293-67.285-37.504-90.496s-55.125-37.504-90.496-37.504h-409.003l140.501 140.501c16.683 16.683 16.683 43.691 0 60.331s-43.691 16.683-60.331 0l-213.333-213.333c-3.925-3.925-7.083-8.619-9.259-13.824-6.4-15.445-3.328-33.92 9.259-46.507l213.333-213.333c16.683-16.683 43.691-16.683 60.331 0s16.683 43.691 0 60.331l-140.501 140.501h409.003c58.88 0 112.299 23.936 150.869 62.464s62.464 91.989 62.464 150.869v298.667c0 23.552-19.115 42.667-42.667 42.667s-42.667-19.115-42.667-42.667z" />
<glyph unicode="&#xe904;" glyph-name="credit-card" d="M128 853.333c-35.328 0-67.413-14.379-90.496-37.504s-37.504-55.168-37.504-90.496v-512c0-35.328 14.379-67.413 37.504-90.496s55.168-37.504 90.496-37.504h768c35.328 0 67.413 14.379 90.496 37.504s37.504 55.168 37.504 90.496v512c0 35.328-14.379 67.413-37.504 90.496s-55.168 37.504-90.496 37.504zM938.667 597.333h-853.333v128c0 11.776 4.736 22.4 12.501 30.165s18.389 12.501 30.165 12.501h768c11.776 0 22.4-4.736 30.165-12.501s12.501-18.389 12.501-30.165zM85.333 512h853.333v-298.667c0-11.776-4.736-22.4-12.501-30.165s-18.389-12.501-30.165-12.501h-768c-11.776 0-22.4 4.736-30.165 12.501s-12.501 18.389-12.501 30.165z" />
<glyph unicode="&#xe905;" glyph-name="edit" d="M469.333 853.333h-298.667c-35.328 0-67.413-14.379-90.496-37.504s-37.504-55.168-37.504-90.496v-597.333c0-35.328 14.379-67.413 37.504-90.496s55.168-37.504 90.496-37.504h597.333c35.328 0 67.413 14.379 90.496 37.504s37.504 55.168 37.504 90.496v298.667c0 23.552-19.115 42.667-42.667 42.667s-42.667-19.115-42.667-42.667v-298.667c0-11.776-4.736-22.4-12.501-30.165s-18.389-12.501-30.165-12.501h-597.333c-11.776 0-22.4 4.736-30.165 12.501s-12.501 18.389-12.501 30.165v597.333c0 11.776 4.736 22.4 12.501 30.165s18.389 12.501 30.165 12.501h298.667c23.552 0 42.667 19.115 42.667 42.667s-19.115 42.667-42.667 42.667zM759.168 904.832l-405.333-405.333c-5.205-5.163-9.259-11.947-11.221-19.84l-42.667-170.667c-1.664-6.4-1.792-13.568 0-20.693 5.717-22.869 28.885-36.779 51.755-31.061l170.667 42.667c7.125 1.749 14.080 5.504 19.84 11.221l405.333 405.333c25.984 25.984 38.997 60.16 38.997 94.165s-13.013 68.181-38.997 94.165-60.203 39.040-94.208 39.040-68.181-13.013-94.165-38.997zM819.499 844.501c9.344 9.344 21.504 13.995 33.835 13.995s24.491-4.651 33.835-13.995 13.995-21.504 13.995-33.835-4.651-24.491-13.995-33.835l-396.971-396.971-90.197-22.571 22.571 90.197z" />
<glyph unicode="&#xe906;" glyph-name="filter" d="M846.72 810.666l-281.984-333.397c-6.272-7.381-10.069-17.024-10.069-27.563v-295.339l-85.333 42.667v252.672c0.043 9.685-3.285 19.499-10.069 27.563l-281.984 333.397zM938.667 896h-853.333c-23.552 0-42.667-19.115-42.667-42.667 0-10.539 3.797-20.181 10.069-27.563l331.264-391.68v-263.424c0-16.597 9.472-31.019 23.595-38.144l170.667-85.333c21.077-10.539 46.72-2.005 57.259 19.072 3.072 6.229 4.523 12.843 4.48 19.072v348.757l331.264 391.68c15.232 18.005 12.971 44.928-5.035 60.117-8.064 6.827-17.877 10.155-27.563 10.112z" />
<glyph unicode="&#xe907;" glyph-name="grid" d="M128 896c-23.552 0-42.667-19.115-42.667-42.667v-298.667c0-23.552 19.115-42.667 42.667-42.667h298.667c23.552 0 42.667 19.115 42.667 42.667v298.667c0 23.552-19.115 42.667-42.667 42.667zM170.667 810.666h213.333v-213.333h-213.333zM597.333 896c-23.552 0-42.667-19.115-42.667-42.667v-298.667c0-23.552 19.115-42.667 42.667-42.667h298.667c23.552 0 42.667 19.115 42.667 42.667v298.667c0 23.552-19.115 42.667-42.667 42.667zM640 810.666h213.333v-213.333h-213.333zM597.333 426.666c-23.552 0-42.667-19.115-42.667-42.667v-298.667c0-23.552 19.115-42.667 42.667-42.667h298.667c23.552 0 42.667 19.115 42.667 42.667v298.667c0 23.552-19.115 42.667-42.667 42.667zM640 341.333h213.333v-213.333h-213.333zM128 426.666c-23.552 0-42.667-19.115-42.667-42.667v-298.667c0-23.552 19.115-42.667 42.667-42.667h298.667c23.552 0 42.667 19.115 42.667 42.667v298.667c0 23.552-19.115 42.667-42.667 42.667zM170.667 341.333h213.333v-213.333h-213.333z" />
<glyph unicode="&#xe908;" glyph-name="heart" d="M859.008 754.474c37.547-37.589 56.277-86.656 56.277-135.851s-18.773-98.261-56.277-135.765l-347.008-347.008-347.008 347.008c-37.504 37.504-56.235 86.571-56.235 135.808s18.731 98.304 56.235 135.808 86.571 56.235 135.808 56.235 98.304-18.731 135.808-56.235l45.227-45.227c16.683-16.683 43.691-16.683 60.331 0l45.312 45.312c37.504 37.504 86.571 56.235 135.765 56.192s98.261-18.773 135.765-56.277zM919.339 814.805c-54.144 54.144-125.184 81.237-196.096 81.28s-141.952-27.051-196.139-81.195l-15.104-15.147-15.061 15.061c-54.144 54.144-125.227 81.237-196.139 81.237s-141.995-27.093-196.139-81.237-81.237-125.227-81.237-196.139 27.093-141.995 81.237-196.139l377.173-377.173c16.683-16.683 43.691-16.683 60.331 0l377.173 377.173c54.144 54.144 81.237 125.184 81.28 196.096s-27.051 141.952-81.28 196.181z" />
<glyph unicode="&#xe909;" glyph-name="home" d="M101.803 630.997c-10.069-7.851-16.469-20.011-16.469-33.664v-469.333c0-35.328 14.379-67.413 37.504-90.496s55.168-37.504 90.496-37.504h597.333c35.328 0 67.413 14.379 90.496 37.504s37.504 55.168 37.504 90.496v469.333c-0.043 12.8-5.717 25.301-16.469 33.664l-384 298.667c-15.275 11.733-36.736 12.16-52.395 0zM682.667 85.333v384c0 23.552-19.115 42.667-42.667 42.667h-256c-23.552 0-42.667-19.115-42.667-42.667v-384h-128c-11.776 0-22.4 4.736-30.165 12.501s-12.501 18.389-12.501 30.165v448.469l341.333 265.472 341.333-265.472v-448.469c0-11.776-4.736-22.4-12.501-30.165s-18.389-12.501-30.165-12.501zM426.667 85.333v341.333h170.667v-341.333z" />
<glyph unicode="&#xe90a;" glyph-name="image" d="M213.333 896c-35.328 0-67.413-14.379-90.496-37.504s-37.504-55.168-37.504-90.496v-597.333c0-35.328 14.379-67.413 37.504-90.496s55.168-37.504 90.496-37.504h597.333c35.328 0 67.413 14.379 90.496 37.504s37.504 55.168 37.504 90.496v597.333c0 35.328-14.379 67.413-37.504 90.496s-55.168 37.504-90.496 37.504zM469.333 618.666c0 29.44-11.989 56.149-31.232 75.435s-45.995 31.232-75.435 31.232-56.149-11.989-75.435-31.232-31.232-45.995-31.232-75.435 11.989-56.149 31.232-75.435 45.995-31.232 75.435-31.232 56.149 11.989 75.435 31.232 31.232 45.995 31.232 75.435zM384 618.666c0-5.888-2.347-11.179-6.229-15.104s-9.216-6.229-15.104-6.229-11.179 2.347-15.104 6.229-6.229 9.216-6.229 15.104 2.347 11.179 6.229 15.104 9.216 6.229 15.104 6.229 11.179-2.347 15.104-6.229 6.229-9.216 6.229-15.104zM316.331 128l366.336 366.336 170.667-170.667v-153.003c0-11.776-4.736-22.4-12.501-30.165s-18.389-12.501-30.165-12.501zM853.333 444.33l-140.501 140.501c-16.683 16.683-43.691 16.683-60.331 0l-454.144-454.144c-5.76 2.133-10.88 5.504-15.189 9.813-7.765 7.765-12.501 18.389-12.501 30.165v597.333c0 11.776 4.736 22.4 12.501 30.165s18.389 12.501 30.165 12.501h597.333c11.776 0 22.4-4.736 30.165-12.501s12.501-18.389 12.501-30.165z" />
<glyph unicode="&#xe90b;" glyph-name="list" d="M341.333 682.666h554.667c23.552 0 42.667 19.115 42.667 42.667s-19.115 42.667-42.667 42.667h-554.667c-23.552 0-42.667-19.115-42.667-42.667s19.115-42.667 42.667-42.667zM341.333 426.666h554.667c23.552 0 42.667 19.115 42.667 42.667s-19.115 42.667-42.667 42.667h-554.667c-23.552 0-42.667-19.115-42.667-42.667s19.115-42.667 42.667-42.667zM341.333 170.666h554.667c23.552 0 42.667 19.115 42.667 42.667s-19.115 42.667-42.667 42.667h-554.667c-23.552 0-42.667-19.115-42.667-42.667s19.115-42.667 42.667-42.667zM128 682.666c23.552 0 42.667 19.115 42.667 42.667s-19.115 42.667-42.667 42.667-42.667-19.115-42.667-42.667 19.115-42.667 42.667-42.667zM128 426.666c23.552 0 42.667 19.115 42.667 42.667s-19.115 42.667-42.667 42.667-42.667-19.115-42.667-42.667 19.115-42.667 42.667-42.667zM128 170.666c23.552 0 42.667 19.115 42.667 42.667s-19.115 42.667-42.667 42.667-42.667-19.115-42.667-42.667 19.115-42.667 42.667-42.667z" />
<glyph unicode="&#xe90c;" glyph-name="log-in" d="M640 810.666h170.667c11.776 0 22.4-4.736 30.165-12.501s12.501-18.389 12.501-30.165v-597.333c0-11.776-4.736-22.4-12.501-30.165s-18.389-12.501-30.165-12.501h-170.667c-23.552 0-42.667-19.115-42.667-42.667s19.115-42.667 42.667-42.667h170.667c35.328 0 67.413 14.379 90.496 37.504s37.504 55.168 37.504 90.496v597.333c0 35.328-14.379 67.413-37.504 90.496s-55.168 37.504-90.496 37.504h-170.667c-23.552 0-42.667-19.115-42.667-42.667s19.115-42.667 42.667-42.667zM537.003 512h-409.003c-23.552 0-42.667-19.115-42.667-42.667s19.115-42.667 42.667-42.667h409.003l-140.501-140.501c-16.683-16.683-16.683-43.691 0-60.331s43.691-16.683 60.331 0l213.333 213.333c4.096 4.096 7.168 8.789 9.259 13.824s3.243 10.539 3.243 16.341c0 5.547-1.067 11.136-3.243 16.341-2.091 5.035-5.163 9.728-9.259 13.824l-213.333 213.333c-16.683 16.683-43.691 16.683-60.331 0s-16.683-43.691 0-60.331z" />
<glyph unicode="&#xe90d;" glyph-name="log-out" d="M384 128h-170.667c-11.776 0-22.4 4.736-30.165 12.501s-12.501 18.389-12.501 30.165v597.333c0 11.776 4.736 22.4 12.501 30.165s18.389 12.501 30.165 12.501h170.667c23.552 0 42.667 19.115 42.667 42.667s-19.115 42.667-42.667 42.667h-170.667c-35.328 0-67.413-14.379-90.496-37.504s-37.504-55.168-37.504-90.496v-597.333c0-35.328 14.379-67.413 37.504-90.496s55.168-37.504 90.496-37.504h170.667c23.552 0 42.667 19.115 42.667 42.667s-19.115 42.667-42.667 42.667zM793.003 512h-409.003c-23.552 0-42.667-19.115-42.667-42.667s19.115-42.667 42.667-42.667h409.003l-140.501-140.501c-16.683-16.683-16.683-43.691 0-60.331s43.691-16.683 60.331 0l213.333 213.333c3.925 3.925 7.083 8.619 9.259 13.824 6.4 15.445 3.328 33.92-9.259 46.507l-213.333 213.333c-16.683 16.683-43.691 16.683-60.331 0s-16.683-43.691 0-60.331z" />
<glyph unicode="&#xe90e;" glyph-name="minus" d="M213.333 426.666h597.333c23.552 0 42.667 19.115 42.667 42.667s-19.115 42.667-42.667 42.667h-597.333c-23.552 0-42.667-19.115-42.667-42.667s19.115-42.667 42.667-42.667z" />
<glyph unicode="&#xe90f;" glyph-name="minus-square" d="M213.333 896c-35.328 0-67.413-14.379-90.496-37.504s-37.504-55.168-37.504-90.496v-597.333c0-35.328 14.379-67.413 37.504-90.496s55.168-37.504 90.496-37.504h597.333c35.328 0 67.413 14.379 90.496 37.504s37.504 55.168 37.504 90.496v597.333c0 35.328-14.379 67.413-37.504 90.496s-55.168 37.504-90.496 37.504zM213.333 810.666h597.333c11.776 0 22.4-4.736 30.165-12.501s12.501-18.389 12.501-30.165v-597.333c0-11.776-4.736-22.4-12.501-30.165s-18.389-12.501-30.165-12.501h-597.333c-11.776 0-22.4 4.736-30.165 12.501s-12.501 18.389-12.501 30.165v597.333c0 11.776 4.736 22.4 12.501 30.165s18.389 12.501 30.165 12.501zM341.333 426.666h341.333c23.552 0 42.667 19.115 42.667 42.667s-19.115 42.667-42.667 42.667h-341.333c-23.552 0-42.667-19.115-42.667-42.667s19.115-42.667 42.667-42.667z" />
<glyph unicode="&#xe910;" glyph-name="plus" d="M213.333 426.666h256v-256c0-23.552 19.115-42.667 42.667-42.667s42.667 19.115 42.667 42.667v256h256c23.552 0 42.667 19.115 42.667 42.667s-19.115 42.667-42.667 42.667h-256v256c0 23.552-19.115 42.667-42.667 42.667s-42.667-19.115-42.667-42.667v-256h-256c-23.552 0-42.667-19.115-42.667-42.667s19.115-42.667 42.667-42.667z" />
<glyph unicode="&#xe911;" glyph-name="plus-square" d="M213.333 896c-35.328 0-67.413-14.379-90.496-37.504s-37.504-55.168-37.504-90.496v-597.333c0-35.328 14.379-67.413 37.504-90.496s55.168-37.504 90.496-37.504h597.333c35.328 0 67.413 14.379 90.496 37.504s37.504 55.168 37.504 90.496v597.333c0 35.328-14.379 67.413-37.504 90.496s-55.168 37.504-90.496 37.504zM213.333 810.666h597.333c11.776 0 22.4-4.736 30.165-12.501s12.501-18.389 12.501-30.165v-597.333c0-11.776-4.736-22.4-12.501-30.165s-18.389-12.501-30.165-12.501h-597.333c-11.776 0-22.4 4.736-30.165 12.501s-12.501 18.389-12.501 30.165v597.333c0 11.776 4.736 22.4 12.501 30.165s18.389 12.501 30.165 12.501zM341.333 426.666h128v-128c0-23.552 19.115-42.667 42.667-42.667s42.667 19.115 42.667 42.667v128h128c23.552 0 42.667 19.115 42.667 42.667s-19.115 42.667-42.667 42.667h-128v128c0 23.552-19.115 42.667-42.667 42.667s-42.667-19.115-42.667-42.667v-128h-128c-23.552 0-42.667-19.115-42.667-42.667s19.115-42.667 42.667-42.667z" />
<glyph unicode="&#xe912;" glyph-name="reload" d="M109.525 327.168c39.168-111.104 119.68-195.883 218.112-243.029s214.955-56.747 326.101-17.621 195.883 119.68 243.029 218.112 56.747 214.955 17.621 326.101-119.68 195.883-218.112 243.029-214.955 56.747-326.101 17.621c-62.891-22.187-117.547-57.685-159.957-100.779l-124.885-117.333v157.397c0 23.552-19.115 42.667-42.667 42.667s-42.667-19.115-42.667-42.667v-255.915c0-0.64 0-1.28 0.043-1.877 0.213-4.907 1.237-9.6 2.944-13.909 1.707-4.352 4.181-8.448 7.381-12.16 0.512-0.555 1.024-1.152 1.536-1.664 3.883-4.053 8.576-7.339 13.824-9.6 5.077-2.176 10.624-3.413 16.469-3.499 0.171 0 0.299 0 0.469 0h256c23.552 0 42.667 19.115 42.667 42.667s-19.115 42.624-42.667 42.624h-148.309l120.704 113.451c33.237 33.792 76.8 62.251 127.445 80.085 88.917 31.317 182.016 23.68 260.864-14.080s143.189-105.515 174.507-194.432 23.68-182.016-14.080-260.864-105.515-143.189-194.432-174.507-182.016-23.68-260.864 14.080-143.189 105.515-174.507 194.432c-7.851 22.229-32.213 33.877-54.4 26.069s-33.877-32.213-26.069-54.4z" />
<glyph unicode="&#xe913;" glyph-name="search" d="M684.416 304.81c-1.451-1.109-2.859-2.347-4.224-3.712s-2.56-2.731-3.712-4.224c-53.675-51.755-126.677-83.541-207.147-83.541-82.475 0-157.099 33.365-211.2 87.467s-87.467 128.725-87.467 211.2 33.365 157.099 87.467 211.2 128.725 87.467 211.2 87.467 157.099-33.365 211.2-87.467 87.467-128.725 87.467-211.2c0-80.469-31.787-153.472-83.584-207.189zM926.165 115.498l-156.8 156.8c52.523 65.707 83.968 149.035 83.968 239.701 0 106.027-43.008 202.069-112.469 271.531s-165.504 112.469-271.531 112.469-202.069-43.008-271.531-112.469-112.469-165.504-112.469-271.531 43.008-202.069 112.469-271.531 165.504-112.469 271.531-112.469c90.667 0 173.995 31.445 239.701 83.968l156.8-156.8c16.683-16.683 43.691-16.683 60.331 0s16.683 43.691 0 60.331z" />
<glyph unicode="&#xe914;" glyph-name="user-x" d="M725.333 85.333v85.333c0 58.88-23.936 112.299-62.464 150.869s-91.989 62.464-150.869 62.464h-298.667c-58.88 0-112.299-23.936-150.869-62.464s-62.464-91.989-62.464-150.869v-85.333c0-23.552 19.115-42.667 42.667-42.667s42.667 19.115 42.667 42.667v85.333c0 35.371 14.293 67.285 37.504 90.496s55.125 37.504 90.496 37.504h298.667c35.371 0 67.285-14.293 90.496-37.504s37.504-55.125 37.504-90.496v-85.333c0-23.552 19.115-42.667 42.667-42.667s42.667 19.115 42.667 42.667zM576 682.666c0 58.88-23.936 112.299-62.464 150.869s-91.989 62.464-150.869 62.464-112.299-23.936-150.869-62.464-62.464-91.989-62.464-150.869 23.936-112.299 62.464-150.869 91.989-62.464 150.869-62.464 112.299 23.936 150.869 62.464 62.464 91.989 62.464 150.869zM490.667 682.666c0-35.371-14.293-67.285-37.504-90.496s-55.125-37.504-90.496-37.504-67.285 14.293-90.496 37.504-37.504 55.125-37.504 90.496 14.293 67.285 37.504 90.496 55.125 37.504 90.496 37.504 67.285-14.293 90.496-37.504 37.504-55.125 37.504-90.496zM951.168 670.165l-76.501-76.501-76.501 76.501c-16.683 16.683-43.691 16.683-60.331 0s-16.683-43.691 0-60.331l76.501-76.501-76.501-76.501c-16.683-16.683-16.683-43.691 0-60.331s43.691-16.683 60.331 0l76.501 76.501 76.501-76.501c16.683-16.683 43.691-16.683 60.331 0s16.683 43.691 0 60.331l-76.501 76.501 76.501 76.501c16.683 16.683 16.683 43.691 0 60.331s-43.691 16.683-60.331 0z" />
<glyph unicode="&#xe915;" glyph-name="settings" d="M682.667 469.333c0 47.104-19.157 89.856-50.005 120.661s-73.557 50.005-120.661 50.005-89.856-19.157-120.661-50.005-50.005-73.557-50.005-120.661 19.157-89.856 50.005-120.661 73.557-50.005 120.661-50.005 89.856 19.157 120.661 50.005 50.005 73.557 50.005 120.661zM597.333 469.333c0-23.595-9.515-44.843-25.003-60.331s-36.736-25.003-60.331-25.003-44.843 9.515-60.331 25.003-25.003 36.736-25.003 60.331 9.515 44.843 25.003 60.331 36.736 25.003 60.331 25.003 44.843-9.515 60.331-25.003 25.003-36.736 25.003-60.331zM866.773 324.096c1.963 4.48 4.779 8.149 8.192 10.965 4.779 3.925 10.709 6.229 17.195 6.272h3.84c35.328 0 67.413 14.379 90.496 37.504s37.504 55.168 37.504 90.496-14.379 67.413-37.504 90.496-55.168 37.504-90.496 37.504h-6.784c-4.693 0.043-9.173 1.195-13.141 3.243-5.419 2.816-9.813 7.339-12.459 13.312-0.128 1.237-0.171 2.517-0.171 3.797-1.024 2.347-1.707 4.736-2.091 7.168 0.853 14.251 3.285 19.371 7.168 23.339l2.645 2.645c24.96 25.003 37.461 57.856 37.419 90.539s-12.544 65.536-37.589 90.539c-25.003 24.96-57.856 37.461-90.539 37.419s-65.536-12.544-90.453-37.504l-1.963-1.963c-3.541-3.413-7.808-5.803-12.288-7.083-5.973-1.664-12.416-1.365-18.688 1.408-4.309 1.877-7.979 4.693-10.795 8.107-3.925 4.779-6.229 10.709-6.272 17.195v3.84c0 35.328-14.379 67.413-37.504 90.496s-55.168 37.504-90.496 37.504-67.413-14.379-90.496-37.504-37.504-55.168-37.504-90.496v-6.784c-0.043-4.693-1.195-9.173-3.243-13.141-2.816-5.419-7.339-9.813-13.312-12.459-1.237-0.128-2.517-0.171-3.797-0.171-2.347-1.024-4.736-1.707-7.168-2.091-14.293 0.896-19.413 3.328-23.381 7.211l-2.645 2.645c-25.003 24.96-57.813 37.461-90.539 37.461s-65.493-12.544-90.539-37.632c-24.96-25.003-37.461-57.813-37.461-90.539s12.544-65.536 37.504-90.453l2.048-2.005c3.413-3.541 5.803-7.808 7.083-12.288 1.664-5.973 1.365-12.416-1.323-18.517-0.256-0.683-0.555-1.451-0.896-2.219-1.749-4.651-4.608-8.661-8.149-11.733-4.693-4.053-10.667-6.528-16.341-6.656h-3.84c-35.328 0-67.413-14.379-90.496-37.504s-37.504-55.211-37.504-90.539 14.379-67.413 37.504-90.496 55.168-37.504 90.496-37.504h6.784c4.693-0.043 9.173-1.195 13.141-3.243 5.461-2.859 9.941-7.424 12.629-13.696 1.024-2.347 1.707-4.736 2.091-7.168-0.853-14.251-3.285-19.371-7.168-23.339l-2.645-2.645c-24.96-25.003-37.461-57.856-37.419-90.539s12.544-65.536 37.589-90.539c25.003-24.96 57.856-37.461 90.539-37.419s65.536 12.544 90.453 37.504l2.005 2.048c3.541 3.413 7.808 5.803 12.288 7.083 5.973 1.664 12.416 1.365 18.517-1.323 0.683-0.256 1.451-0.555 2.219-0.896 4.651-1.749 8.661-4.608 11.733-8.149 4.053-4.693 6.528-10.667 6.656-16.341v-3.925c0-35.328 14.379-67.413 37.504-90.496s55.168-37.504 90.496-37.504 67.413 14.379 90.496 37.504 37.504 55.168 37.504 90.496v6.784c0.043 4.693 1.195 9.173 3.243 13.141 2.859 5.461 7.424 9.941 13.696 12.629 2.347 1.024 4.736 1.707 7.168 2.091 14.251-0.853 19.371-3.285 23.339-7.168l2.645-2.645c25.003-24.96 57.856-37.461 90.539-37.419s65.536 12.544 90.539 37.589c24.96 25.003 37.461 57.856 37.419 90.539s-12.544 65.536-37.504 90.453l-2.048 2.005c-3.413 3.541-5.803 7.808-7.083 12.288-1.664 5.973-1.365 12.416 1.323 18.517zM784.896 584.448c-0.512 8.576-1.621 12.672-3.243 16.299v-3.413c0-1.835 0.128-3.584 0.341-5.333 0.896-2.56 1.835-5.077 2.901-7.552 0.171-3.84 0.213-3.883 0.213-3.925 10.624-24.789 29.184-43.947 51.541-55.595 15.829-8.235 33.493-12.715 51.669-12.928h7.68c11.776 0 22.4-4.736 30.165-12.501s12.501-18.389 12.501-30.165-4.736-22.4-12.501-30.165-18.389-12.501-30.165-12.501h-3.84c-27.179-0.128-52.053-9.728-71.467-25.728-13.781-11.349-24.789-25.899-32-42.368-10.965-24.832-12.288-51.627-5.419-76.032 5.077-18.048 14.549-34.731 27.819-48.469l3.072-3.115c8.363-8.363 12.544-19.2 12.544-30.165s-4.139-21.845-12.459-30.165c-8.405-8.405-19.243-12.587-30.251-12.587s-21.845 4.139-30.165 12.459l-2.603 2.603c-19.755 19.328-44.373 29.952-69.632 32.085-18.645 1.579-37.632-1.451-55.168-9.045-24.661-10.581-43.819-29.141-55.467-51.456-8.235-15.829-12.715-33.493-12.928-51.669v-7.723c0-11.776-4.736-22.4-12.501-30.165s-18.347-12.459-30.123-12.459-22.4 4.736-30.165 12.501-12.501 18.389-12.501 30.165v3.84c-0.64 28.16-10.88 52.992-27.477 72.192-12.117 13.995-27.563 24.96-45.141 31.744-24.533 10.539-50.901 11.691-74.923 4.949-18.048-5.077-34.731-14.549-48.469-27.819l-3.115-3.072c-8.363-8.363-19.2-12.544-30.165-12.544s-21.845 4.139-30.165 12.459c-8.405 8.405-12.587 19.243-12.587 30.251s4.139 21.845 12.459 30.165l2.603 2.603c19.328 19.755 29.952 44.373 32.085 69.632 1.579 18.645-1.451 37.632-9.045 55.168-10.581 24.661-29.141 43.819-51.456 55.467-15.829 8.235-33.493 12.715-51.669 12.928l-7.68-0.043c-11.776 0-22.4 4.736-30.165 12.501s-12.501 18.389-12.501 30.165 4.736 22.4 12.501 30.165 18.389 12.501 30.165 12.501h3.84c28.16 0.64 52.992 10.88 72.192 27.477 13.995 12.117 24.96 27.563 31.744 45.141 10.539 24.533 11.691 50.901 4.949 74.923-5.077 18.048-14.549 34.731-27.819 48.469l-3.115 3.115c-8.363 8.363-12.544 19.2-12.544 30.165s4.139 21.845 12.459 30.165c8.405 8.405 19.243 12.587 30.251 12.587s21.845-4.139 30.165-12.459l2.603-2.603c19.755-19.328 44.373-29.952 69.632-32.085 15.787-1.365 31.787 0.597 46.976 5.845 4.096 0.512 7.936 1.536 11.349 3.072-1.323-0.043-2.603-0.128-3.797-0.171-8.576-0.512-12.672-1.621-16.299-3.243h3.413c1.835 0 3.584 0.128 5.333 0.341 2.56 0.896 5.077 1.835 7.552 2.901 3.84 0.171 3.883 0.213 3.925 0.213 24.789 10.624 43.947 29.184 55.595 51.541 8.235 15.787 12.715 33.493 12.928 51.627v7.723c0 11.776 4.736 22.4 12.501 30.165s18.389 12.501 30.165 12.501 22.4-4.736 30.165-12.501 12.501-18.389 12.501-30.165v-3.84c0.128-27.179 9.728-52.053 25.728-71.467 11.349-13.781 25.899-24.789 42.496-32.043 24.661-10.88 51.456-12.203 75.861-5.333 18.048 5.077 34.731 14.549 48.469 27.819l3.115 3.072c8.363 8.363 19.2 12.544 30.165 12.544s21.845-4.139 30.165-12.459c8.405-8.405 12.587-19.243 12.587-30.251s-4.139-21.845-12.459-30.165l-2.603-2.603c-19.328-19.755-29.952-44.373-32.085-69.632-1.365-15.787 0.597-31.787 5.845-46.976 0.512-4.053 1.579-7.893 3.072-11.349-0.043 1.365-0.085 2.645-0.171 3.797z" />
<glyph unicode="&#xe916;" glyph-name="shopping-cart" d="M469.333 85.333c0 23.552-9.6 44.928-25.003 60.331s-36.779 25.003-60.331 25.003-44.928-9.6-60.331-25.003-25.003-36.779-25.003-60.331 9.6-44.928 25.003-60.331 36.779-25.003 60.331-25.003 44.928 9.6 60.331 25.003 25.003 36.779 25.003 60.331zM938.667 85.333c0 23.552-9.6 44.928-25.003 60.331s-36.779 25.003-60.331 25.003-44.928-9.6-60.331-25.003-25.003-36.779-25.003-60.331 9.6-44.928 25.003-60.331 36.779-25.003 60.331-25.003 44.928 9.6 60.331 25.003 25.003 36.779 25.003 60.331zM308.096 682.666h621.653l-58.496-306.816c-1.963-9.728-7.083-18.133-14.165-24.235-7.68-6.656-17.621-10.496-29.355-10.283h-415.317c-9.899-0.128-19.243 3.029-26.709 8.661-8.107 6.101-14.037 14.976-16.171 25.728zM42.667 896h135.68l36.181-180.864c4.608-18.645 21.419-32.469 41.472-32.469h52.096l-17.067 85.333h-35.029c-23.552 0-42.667-19.115-42.667-42.667 0-2.261 0.171-4.48 0.512-6.613 0.171-1.195 0.427-2.432 0.725-3.584l71.296-356.139c6.357-32.043 24.32-59.008 48.64-77.269 22.229-16.725 49.92-26.155 79.104-25.728h414.123c31.915-0.64 62.080 11.136 85.12 31.019 21.077 18.176 36.181 43.221 42.027 71.808l68.352 358.485c4.395 23.168-10.752 45.483-33.92 49.92-2.773 0.555-5.547 0.811-7.979 0.768h-690.347l-35.84 179.029c-4.011 19.712-21.205 34.304-41.813 34.304h-170.667c-23.552 0-42.667-19.115-42.667-42.667s19.115-42.667 42.667-42.667z" />
<glyph unicode="&#xe917;" glyph-name="sliders" d="M213.333 554.666v298.667c0 23.552-19.115 42.667-42.667 42.667s-42.667-19.115-42.667-42.667v-298.667c0-23.552 19.115-42.667 42.667-42.667s42.667 19.115 42.667 42.667zM554.667 85.333v384c0 23.552-19.115 42.667-42.667 42.667s-42.667-19.115-42.667-42.667v-384c0-23.552 19.115-42.667 42.667-42.667s42.667 19.115 42.667 42.667zM896 469.333v384c0 23.552-19.115 42.667-42.667 42.667s-42.667-19.115-42.667-42.667v-384c0-23.552 19.115-42.667 42.667-42.667s42.667 19.115 42.667 42.667zM42.667 341.333h85.333v-256c0-23.552 19.115-42.667 42.667-42.667s42.667 19.115 42.667 42.667v256h85.333c23.552 0 42.667 19.115 42.667 42.667s-19.115 42.667-42.667 42.667h-256c-23.552 0-42.667-19.115-42.667-42.667s19.115-42.667 42.667-42.667zM384 597.333h256c23.552 0 42.667 19.115 42.667 42.667s-19.115 42.667-42.667 42.667h-85.333v170.667c0 23.552-19.115 42.667-42.667 42.667s-42.667-19.115-42.667-42.667v-170.667h-85.333c-23.552 0-42.667-19.115-42.667-42.667s19.115-42.667 42.667-42.667zM725.333 256h85.333v-170.667c0-23.552 19.115-42.667 42.667-42.667s42.667 19.115 42.667 42.667v170.667h85.333c23.552 0 42.667 19.115 42.667 42.667s-19.115 42.667-42.667 42.667h-256c-23.552 0-42.667-19.115-42.667-42.667s19.115-42.667 42.667-42.667z" />
<glyph unicode="&#xe918;" glyph-name="star" d="M550.272 914.901c-3.925 8.064-10.581 15.019-19.371 19.371-21.12 10.411-46.72 1.749-57.131-19.371l-121.941-246.997-272.683-39.893c-8.875-1.237-17.536-5.419-24.363-12.416-16.469-16.896-16.085-43.904 0.768-60.331l197.248-192.128-46.549-271.445c-1.536-8.832-0.256-18.389 4.309-27.051 10.965-20.864 36.779-28.885 57.643-17.92l243.797 128.213 243.84-128.213c7.936-4.224 17.408-5.931 27.051-4.309 23.211 3.968 38.827 26.027 34.859 49.28l-46.549 271.445 197.248 192.128c6.443 6.229 11.051 14.677 12.459 24.405 3.413 23.296-12.715 44.971-36.053 48.384l-272.64 39.851zM512 799.616l93.568-189.611c6.443-13.013 18.603-21.291 32.085-23.339l209.323-30.592-151.424-147.499c-10.411-10.155-14.549-24.277-12.288-37.76l35.712-208.341-187.136 98.432c-12.843 6.741-27.605 6.315-39.723 0l-187.136-98.432 35.712 208.341c2.475 14.336-2.517 28.203-12.288 37.76l-151.424 147.499 209.365 30.635c14.336 2.091 25.984 11.093 32.085 23.296z" />
<glyph unicode="&#xe919;" glyph-name="trash" d="M768 682.666v-554.667c0-11.776-4.736-22.4-12.501-30.165s-18.389-12.501-30.165-12.501h-426.667c-11.776 0-22.4 4.736-30.165 12.501s-12.501 18.389-12.501 30.165v554.667zM725.333 768v42.667c0 35.328-14.379 67.413-37.504 90.496s-55.168 37.504-90.496 37.504h-170.667c-35.328 0-67.413-14.379-90.496-37.504s-37.504-55.168-37.504-90.496v-42.667h-170.667c-23.552 0-42.667-19.115-42.667-42.667s19.115-42.667 42.667-42.667h42.667v-554.667c0-35.328 14.379-67.413 37.504-90.496s55.168-37.504 90.496-37.504h426.667c35.328 0 67.413 14.379 90.496 37.504s37.504 55.168 37.504 90.496v554.667h42.667c23.552 0 42.667 19.115 42.667 42.667s-19.115 42.667-42.667 42.667zM384 768v42.667c0 11.776 4.736 22.4 12.501 30.165s18.389 12.501 30.165 12.501h170.667c11.776 0 22.4-4.736 30.165-12.501s12.501-18.389 12.501-30.165v-42.667zM384 512v-256c0-23.552 19.115-42.667 42.667-42.667s42.667 19.115 42.667 42.667v256c0 23.552-19.115 42.667-42.667 42.667s-42.667-19.115-42.667-42.667zM554.667 512v-256c0-23.552 19.115-42.667 42.667-42.667s42.667 19.115 42.667 42.667v256c0 23.552-19.115 42.667-42.667 42.667s-42.667-19.115-42.667-42.667z" />
<glyph unicode="&#xe91a;" glyph-name="user" d="M896 85.333v85.333c0 58.88-23.936 112.299-62.464 150.869s-91.989 62.464-150.869 62.464h-341.333c-58.88 0-112.299-23.936-150.869-62.464s-62.464-91.989-62.464-150.869v-85.333c0-23.552 19.115-42.667 42.667-42.667s42.667 19.115 42.667 42.667v85.333c0 35.371 14.293 67.285 37.504 90.496s55.125 37.504 90.496 37.504h341.333c35.371 0 67.285-14.293 90.496-37.504s37.504-55.125 37.504-90.496v-85.333c0-23.552 19.115-42.667 42.667-42.667s42.667 19.115 42.667 42.667zM725.333 682.666c0 58.88-23.936 112.299-62.464 150.869s-91.989 62.464-150.869 62.464-112.299-23.936-150.869-62.464-62.464-91.989-62.464-150.869 23.936-112.299 62.464-150.869 91.989-62.464 150.869-62.464 112.299 23.936 150.869 62.464 62.464 91.989 62.464 150.869zM640 682.666c0-35.371-14.293-67.285-37.504-90.496s-55.125-37.504-90.496-37.504-67.285 14.293-90.496 37.504-37.504 55.125-37.504 90.496 14.293 67.285 37.504 90.496 55.125 37.504 90.496 37.504 67.285-14.293 90.496-37.504 37.504-55.125 37.504-90.496z" />
<glyph unicode="&#xe91b;" glyph-name="user-check" d="M725.333 85.333v85.333c0 58.88-23.936 112.299-62.464 150.869s-91.989 62.464-150.869 62.464h-298.667c-58.88 0-112.299-23.936-150.869-62.464s-62.464-91.989-62.464-150.869v-85.333c0-23.552 19.115-42.667 42.667-42.667s42.667 19.115 42.667 42.667v85.333c0 35.371 14.293 67.285 37.504 90.496s55.125 37.504 90.496 37.504h298.667c35.371 0 67.285-14.293 90.496-37.504s37.504-55.125 37.504-90.496v-85.333c0-23.552 19.115-42.667 42.667-42.667s42.667 19.115 42.667 42.667zM576 682.666c0 58.88-23.936 112.299-62.464 150.869s-91.989 62.464-150.869 62.464-112.299-23.936-150.869-62.464-62.464-91.989-62.464-150.869 23.936-112.299 62.464-150.869 91.989-62.464 150.869-62.464 112.299 23.936 150.869 62.464 62.464 91.989 62.464 150.869zM490.667 682.666c0-35.371-14.293-67.285-37.504-90.496s-55.125-37.504-90.496-37.504-67.285 14.293-90.496 37.504-37.504 55.125-37.504 90.496 14.293 67.285 37.504 90.496 55.125 37.504 90.496 37.504 67.285-14.293 90.496-37.504 37.504-55.125 37.504-90.496zM695.168 481.834l85.333-85.333c16.683-16.683 43.691-16.683 60.331 0l170.667 170.667c16.683 16.683 16.683 43.691 0 60.331s-43.691 16.683-60.331 0l-140.501-140.501-55.168 55.168c-16.683 16.683-43.691 16.683-60.331 0s-16.683-43.691 0-60.331z" />
<glyph unicode="&#xe91c;" glyph-name="help-circle" d="M981.333 469.333c0 129.579-52.565 246.997-137.472 331.861s-202.283 137.472-331.861 137.472-246.997-52.565-331.861-137.472-137.472-202.283-137.472-331.861 52.565-246.997 137.472-331.861 202.283-137.472 331.861-137.472 246.997 52.565 331.861 137.472 137.472 202.283 137.472 331.861zM896 469.333c0-106.069-42.923-201.984-112.469-271.531s-165.461-112.469-271.531-112.469-201.984 42.923-271.531 112.469-112.469 165.461-112.469 271.531 42.923 201.984 112.469 271.531 165.461 112.469 271.531 112.469 201.984-42.923 271.531-112.469 112.469-165.461 112.469-271.531zM428.075 583.168c7.808 22.229 23.851 39.168 43.605 48.64s42.965 11.392 65.195 3.541c19.541-6.869 34.944-20.053 44.8-36.651 7.808-13.099 12.117-28.373 12.203-44.245 0-6.613-1.664-13.184-4.992-19.797-3.413-6.827-8.661-13.867-15.701-20.907-30.251-30.251-78.123-46.592-78.123-46.592-22.357-7.467-34.432-31.616-26.965-53.973s31.616-34.432 53.973-26.965c0 0 65.877 21.589 111.488 67.2 11.904 11.904 23.253 26.197 31.701 43.093 8.533 17.067 13.995 36.608 13.995 58.411-0.171 31.189-8.704 61.312-24.192 87.424-19.755 33.195-50.773 59.819-89.813 73.557-44.459 15.616-91.093 11.733-130.432-7.125s-71.595-52.821-87.211-97.28c-7.851-22.229 3.84-46.592 26.069-54.4s46.592 3.883 54.4 26.069zM512 213.333c23.552 0 42.667 19.115 42.667 42.667s-19.115 42.667-42.667 42.667-42.667-19.115-42.667-42.667 19.115-42.667 42.667-42.667z" />
</font>
</defs>
</svg>
